<svg xmlns="http://www.w3.org/2000/svg" viewBox="0 0 637 588.8"><defs><style>.cls-1{fill:#404040;}</style></defs><g id="Layer_2" data-name="Layer 2"><g id="Layer_1-2" data-name="Layer 1"><path class="cls-1" d="M10.22,80.09c17.4-3.6,34.4-17.32,46.65-37.63,8-13.26,11.63-24.13,14.84-33.72,1-3,2-5.88,3-8.74H70.49c-.89,2.45-1.73,4.94-2.57,7.47-3.15,9.39-6.71,20-14.48,32.92C41.77,59.75,25.72,72.8,9.41,76.18A33.55,33.55,0,0,1,0,76.85v4c.73,0,1.47.08,2.23.08A38.92,38.92,0,0,0,10.22,80.09Z"/><path class="cls-1" d="M0,0V2A11.19,11.19,0,0,0,6.39,0Z"/><path class="cls-1" d="M249.06,331c4.76,3.86,10.85,5.79,17.8,5.79,7.44,0,15.88-2.21,24.76-6.6,23.1-11.43,47.23-37.77,46.46-64.09-.43-14.31-8.34-27.74-21.71-36.85-14.65-10-33.1-12.81-48.16-7.39C251.09,228,239.72,252.7,236,274.41,232.72,294,234.4,319.13,249.06,331ZM240,275.08c4.19-24.71,16.08-44.58,29.59-49.44,13.86-5,30.93-2.33,44.55,6.94,12.3,8.38,19.57,20.64,20,33.66.72,24.65-22.25,49.51-44.23,60.38-15.73,7.79-29.68,8.25-38.27,1.29C240.44,318.88,236,298.63,240,275.08Z"/><path class="cls-1" d="M265,276.37a12.79,12.79,0,0,0,5.91,1.41c4.19,0,8.85-1.94,12.48-6.86a2,2,0,0,0,.31-1.75,2,2,0,0,0-1.2-1.31c-4.1-1.57-15.14-7.55-20-11.39a2,2,0,0,0-1.81-.35,2,2,0,0,0-1.32,1.27C255.9,267.44,260.21,273.89,265,276.37Zm-2.57-15a130.27,130.27,0,0,0,16.07,9.11c-3.87,3.78-8.47,4-11.65,2.34S261.2,267.43,262.38,261.37Z"/><path class="cls-1" d="M297,294.13a12.87,12.87,0,0,0,5.92,1.41c4.19,0,8.85-1.94,12.48-6.86a2,2,0,0,0,.31-1.75,2,2,0,0,0-1.2-1.3c-4.1-1.58-15.15-7.56-20-11.4a2,2,0,0,0-3.14.93C287.9,285.2,292.22,291.66,297,294.13Zm-2.56-15a131.62,131.62,0,0,0,16.06,9.12c-3.86,3.77-8.46,4-11.64,2.34S293.21,285.19,294.39,279.13Z"/><path class="cls-1" d="M251.54,298.89l5.43,2.95-3,6a2,2,0,1,0,3.56,1.82l3-5.87,5.05,2.75-3.11,5.73a2,2,0,0,0,.81,2.71,1.92,1.92,0,0,0,.95.24,2,2,0,0,0,1.76-1l3.11-5.73,4.87,2.65-3.79,6.64a2,2,0,1,0,3.47,2l3.83-6.71,5.74,3.12a2.1,2.1,0,0,0,1,.24,2,2,0,0,0,.95-3.76l-5.66-3.08,3.35-5.86a2,2,0,1,0-3.47-2l-3.4,5.93-5-2.69,3.13-5.77a2,2,0,0,0-3.52-1.91L267.45,303l-5.14-2.79,3.32-6.5a2,2,0,0,0-3.56-1.82l-3.28,6.41-5.34-2.9a2,2,0,0,0-1.91,3.51Z"/><path class="cls-1" d="M262.43,156a213.2,213.2,0,0,0,24.6,11.9,1.9,1.9,0,0,0,.83.31,88.09,88.09,0,0,0,16.78,4.59,52.74,52.74,0,0,0,8.9.73c22,0,45.16-13.33,52.07-41.82,3.12-12.86-2.78-40.43-30.9-49.44-2.72-3.16-6.86-6.12-12.29-8.81a11.8,11.8,0,0,1,1.08-1.82,10,10,0,0,1,7.85-4.14,2,2,0,0,0,1.71-1.12,2,2,0,0,0-.17-2c-1.1-1.54-1.58-5.39-1-8.25a2,2,0,0,0-2.17-2.36c-8.6.89-15.22,7-20.43,14.47-6.76-2-12.59-2.55-17.72-1.53a48.5,48.5,0,0,0-36,6,39.26,39.26,0,0,0-17.79,25C233.25,117.58,239.14,143.35,262.43,156Zm99.3-25.24c-6.27,25.82-26.86,38.2-46.84,38.74,26.21-13.88,33.51-30.19,34.86-41.83,1.55-13.46-4.42-27.17-15.59-35.78a2,2,0,0,0-2.44,3.17c10.06,7.76,15.44,20.07,14,32.15-1.33,11.53-9.19,28.12-39,41.86l-1.46-.22a82.16,82.16,0,0,1-12.8-3.23c30.64-22.76,30.07-63.38,24.36-76.77a23,23,0,0,0,3.34-.45l.06,0h.05a3,3,0,0,0,.32-.12l0,0A25.77,25.77,0,0,1,333.16,86C359.05,94.13,364.55,119.16,361.73,130.8Zm-33-48.73a31.16,31.16,0,0,0-7.44,1.66,19.48,19.48,0,0,1,0-6.37A42.43,42.43,0,0,1,328.69,82.07Zm-1.06-23.88a19,19,0,0,0,.71,5.74,13.91,13.91,0,0,0-8.07,5.38,16.22,16.22,0,0,0-2.19,4.24.22.22,0,0,1-.05.08,1.88,1.88,0,0,0-.14.46,22.3,22.3,0,0,0-.51,10.73c-4.94.49-9.51-1-11.16-3.66C311.24,71.47,318.09,60.68,327.63,58.19ZM307,71.72c-1,1.6-1.93,3.22-2.82,4.84a27.44,27.44,0,0,0-6.23-6.34A38.69,38.69,0,0,1,307,71.72Zm-65.3,26.82a35.23,35.23,0,0,1,16-22.45,44.41,44.41,0,0,1,33.23-5.42c5.35,2.33,10.77,8,11.1,10.7h0a2.18,2.18,0,0,0,.11.44.06.06,0,0,0,0,0c1.47,3.81,5.69,6.33,10.89,6.94a2,2,0,0,0,.08,1.41c2.84,6.37,4.34,19.89.93,34.54-2.73,11.74-9.47,28-26.07,39.25a206.61,206.61,0,0,1-22.82-11.05,65.38,65.38,0,0,1,3.59-42.33c5.74-13,15.24-22.53,26.05-26.21a2,2,0,1,0-1.29-3.78c-24.05,8.17-38.74,39.85-33.07,69.5C242.23,137.79,237.75,115.8,241.65,98.54Z"/><path class="cls-1" d="M418.09,232.54A80.77,80.77,0,0,1,406,235.45c-2.39.46-4.89.94-7.42,1.5l-9.38-8.61a4.91,4.91,0,1,0-4.65,3.38,4.75,4.75,0,0,0,2-.42l7.42,6.81a56.63,56.63,0,0,0-7.69,2.65c-4.33,1.91-6.5,6.22-5.65,11.26,1,6,6.52,12.85,16.23,13.63,1.38.11,3.53.1,6,.08,5.92,0,15.8-.1,19,1.91,4.76,3,9.45,17.65,13.13,31l-4.05-1.46a4.45,4.45,0,1,0-1.27,3.8l6.6,2.37,1.38,5.2c2.42,9.16,4.33,16.4,6,19.4a13,13,0,0,0,11.51,6.79,14.72,14.72,0,0,0,2.85-.28A15.26,15.26,0,0,0,470.14,321c.6-4.71-3.41-31-4.57-38.38l3.33-1.23c3.64,4.36,17,20.24,23.39,25.84a14.42,14.42,0,0,0,18.6.88c4.27-3.34,7.69-10.25,3.29-18.77-.73-1.42-2.91-4.53-5.93-8.83-4-5.68-9.63-13.7-14.42-21.47l6.79-14.38a4.67,4.67,0,1,0-3.86-1.2l-5.41,11.46c-4.05-7-7-13.36-7-17.16.06-6.24,8.18-15.8,14.7-23.49,1.36-1.59,2.67-3.14,3.88-4.61,6.06-7.39,4-13.79.11-17.33-4.9-4.4-13.85-5.37-19.36.21-4.82,4.89-13.65,12.41-22.46,16.88a36.86,36.86,0,0,0-29.51-49.21l1.42-7.14h0a4.55,4.55,0,1,0-3.72-2l-1.74,8.77-1.07,0a36.85,36.85,0,0,0-8.56,72.69Zm68.45-37.19c3.86-3.9,10.39-3.15,13.84,0s3.16,7.32-.52,11.82c-1.2,1.45-2.49,3-3.83,4.56-7.31,8.6-15.59,18.35-15.66,26-.05,5,3.65,12.74,8.93,21.53l-3.62,7.67a2,2,0,0,0,1,2.66,2,2,0,0,0,.85.19,2,2,0,0,0,1.81-1.14l2.51-5.32c4,6.35,8.64,13.06,13.16,19.49,2.71,3.86,5.06,7.19,5.66,8.36,3.27,6.34,1,11.28-2.2,13.79a10.34,10.34,0,0,1-13.5-.73c-7-6.17-23.69-26.28-23.86-26.49a2,2,0,0,0-2.24-.6l-6.19,2.3a2,2,0,0,0-1.28,2.19c2.18,13.71,5.25,35.37,4.81,38.87a11.32,11.32,0,0,1-9,10,9.25,9.25,0,0,1-10.1-4.56c-1.44-2.54-3.47-10.27-5.63-18.45-.23-.85-.45-1.69-.67-2.53l6.83,2.46a2,2,0,0,0,.68.12,2,2,0,0,0,.67-3.88l-9.45-3.4c-5-18.35-9.56-32.21-15.59-36-3.87-2.44-11.88-2.59-21.15-2.53-2.39,0-4.46,0-5.66-.07-7.58-.61-11.86-5.77-12.62-10.3-.26-1.54-.45-5.28,3.32-6.93a58.78,58.78,0,0,1,9.59-3.1l9.43,8.66a2,2,0,0,0,1.35.53,2,2,0,0,0,1.35-3.47l-7.37-6.77c1.54-.32,3.07-.61,4.55-.9,7.48-1.43,14.19-2.72,17.75-5.9.72.05,1.45.07,2.18.07a36.87,36.87,0,0,0,32-18.51C471.85,210,484.73,197.19,486.54,195.35Zm-59.89-31.5h.29l-1.34,6.74a2,2,0,0,0,1.58,2.35,1.72,1.72,0,0,0,.39,0,2,2,0,0,0,2-1.61l1.43-7.23A32.9,32.9,0,0,1,459.5,196.7a32.55,32.55,0,0,1-3.66,15,32.21,32.21,0,0,1-3.19,5,32.81,32.81,0,0,1-25.74,12.8h-.26a31.58,31.58,0,0,1-3.91-.24,32.85,32.85,0,0,1,3.91-65.46Z"/><path class="cls-1" d="M423.6,178.68a49.21,49.21,0,0,1,10,4.09c-1.37,4.24-3,8.34-4.58,10.46a2,2,0,0,0,1.61,3.18,2,2,0,0,0,1.62-.82c1.71-2.34,3.44-6.45,4.88-10.75a34.84,34.84,0,0,1,8.11,6.92,2,2,0,0,0,1.56.75,2,2,0,0,0,1.25-.44,2,2,0,0,0,.31-2.81,39.67,39.67,0,0,0-10-8.37,65.76,65.76,0,0,0,2.17-9.69,2,2,0,0,0-1.77-2.21,2,2,0,0,0-2.21,1.77,57.08,57.08,0,0,1-1.77,8.1,52.75,52.75,0,0,0-10.15-4,2,2,0,0,0-1.06,3.86Z"/><path class="cls-1" d="M401.51,196.4a29.32,29.32,0,0,1,5.92.47,48.49,48.49,0,0,0-1.24,6.62,2,2,0,0,0,1.91,2.09h.09a2,2,0,0,0,2-1.91,48.2,48.2,0,0,1,1.19-6.11,38.45,38.45,0,0,1,5.56,1.44,1.9,1.9,0,0,0,.77.16,2,2,0,0,0,.77-3.85,40.91,40.91,0,0,0-6.14-1.64c.47-1.85.92-3.48,1.2-4.41a2,2,0,1,0-3.82-1.17c-.24.77-.76,2.65-1.33,4.87a34.68,34.68,0,0,0-7.28-.54,2,2,0,0,0,.4,4Z"/><path class="cls-1" d="M419.51,206.15l.61,1.53a44.77,44.77,0,0,0-4.12,2.59l-1.37-1.9a2,2,0,0,0-3.25,2.34l1.51,2.09a18.21,18.21,0,0,0-2.95,3.47,2,2,0,0,0,.62,2.76,2,2,0,0,0,2.76-.62,14.21,14.21,0,0,1,1.93-2.34l1.75,2.44a2,2,0,0,0,1.63.83,1.94,1.94,0,0,0,1.16-.38,2,2,0,0,0,.46-2.79l-1.92-2.67c1-.71,2.08-1.41,3.26-2.09l.68,1.73a2,2,0,0,0,1.86,1.27,2.1,2.1,0,0,0,.73-.14,2,2,0,0,0,1.13-2.59l-.84-2.14a69.51,69.51,0,0,1,7.35-3l.12,1.55a2,2,0,0,0,2,1.84h.16a2,2,0,0,0,1.83-2.16l-.2-2.45c1.08-.31,2.17-.59,3.26-.85v.94a2,2,0,1,0,4,0v-1.78c1.47-.26,2.93-.47,4.37-.62v.57a2,2,0,0,0,4,0v-.85l.67,0a2,2,0,0,0,0-4h0l-.6,0v-1.57a2,2,0,0,0-4,0V199c-1.43.15-2.89.35-4.37.61v-2.45a2,2,0,0,0-4,0v3.25q-1.8.41-3.6.9l-.2-2.48a2,2,0,1,0-4,.33l.28,3.34a76.91,76.91,0,0,0-8.47,3.34l-.45-1.16a2,2,0,1,0-3.73,1.47Z"/><path class="cls-1" d="M450.12,257a2,2,0,0,0,1.71,2.26l2.35.32L454,263a2,2,0,0,0,1.9,2.1h.1a2,2,0,0,0,2-1.9l.15-3.12,2.47.34.27,0a2,2,0,0,0,.28-4l-2.82-.39.14-2.81a2,2,0,0,0-1.89-2.09,2,2,0,0,0-2.1,1.89l-.12,2.45-2-.27A2,2,0,0,0,450.12,257Z"/><path class="cls-1" d="M130.7,28a1.72,1.72,0,0,0,.39,0l27-5.35c1.79,8.82,3.08,14.86,3.1,15a2,2,0,0,0,3.91-.84C164,31.75,163,26.76,162,21.79l31.42-6.24c1.21,6.5,2.25,11.6,3,14.15a2,2,0,1,0,3.85-1.09c-.7-2.46-1.71-7.45-2.9-13.84L211.19,12a2,2,0,0,0-.78-3.92l-13.84,2.75c-.61-3.38-1.26-7-1.92-10.84H190.6c.7,4.08,1.39,8,2.05,11.61l-31.49,6.25C159.94,11.78,158.77,5.78,157.7,0h-4.06c1.24,6.6,2.49,13,3.62,18.64L130.31,24a2,2,0,0,0,.39,4Z"/><path class="cls-1" d="M217.83,10.37l.25,0,9.79-1.22a2,2,0,0,0-.5-4l-9.78,1.23a2,2,0,0,0,.24,4Z"/><path class="cls-1" d="M6.88,280.83C12.64,276.4,8.28,264.49,1,255c-.33-.43-.67-.84-1-1.24v6.74c4.89,7.47,7,15.15,4.44,17.13a4.68,4.68,0,0,1-4.44.53v4.11a10.27,10.27,0,0,0,1.92.2A8,8,0,0,0,6.88,280.83Z"/><path class="cls-1" d="M10,251.79a6.45,6.45,0,0,0,3.32-.87c4.64-2.72,4.83-9.46.46-17.15C10.42,227.84,5.11,222.64,0,221.51v4.15c3.54,1.23,7.65,5.4,10.3,10.08s3.93,10,1,11.73c-1.44.85-3.65-.18-4.83-.87A25,25,0,0,1,0,240.8v5.83a24.56,24.56,0,0,0,4.45,3.42A11.06,11.06,0,0,0,10,251.79Z"/><path class="cls-1" d="M32.14,254.42a1.9,1.9,0,0,0,.77-.16A2,2,0,0,0,34,251.65L17.47,212.32a2,2,0,1,0-3.68,1.55L30.3,253.2A2,2,0,0,0,32.14,254.42Z"/><path class="cls-1" d="M35.47,263.59a1.89,1.89,0,0,0,.73-.14,2,2,0,0,0,1.13-2.59l-1.72-4.36A2,2,0,0,0,31.88,258l1.72,4.36A2,2,0,0,0,35.47,263.59Z"/><path class="cls-1" d="M526.68,433.73a10.65,10.65,0,0,0,5-20.05,11.07,11.07,0,0,0,1-4.73,11.26,11.26,0,1,0-22.51,0,11.76,11.76,0,0,0,.26,2.44,448.68,448.68,0,0,1-68.29,26A11.23,11.23,0,1,0,426,451.63a11.08,11.08,0,1,0,21.3,4.27,11.41,11.41,0,0,0-.06-1.16A541.1,541.1,0,0,0,517,427.42,10.65,10.65,0,0,0,526.68,433.73ZM444.3,451.46a2,2,0,0,0-1.33,2.46,7.07,7.07,0,1,1-13.86,2,7,7,0,0,1,1.23-4,2,2,0,0,0-.91-3,7.23,7.23,0,1,1,9.63-8.63,2,2,0,0,0,2.46,1.4,452.6,452.6,0,0,0,72.27-27.45,2,2,0,0,0,1-2.57,7.26,7.26,0,1,1,12.4,1.75,2,2,0,0,0,1.1,3.18,6.65,6.65,0,1,1-8.14,7.64,2,2,0,0,0-2.84-1.44A537.92,537.92,0,0,1,444.3,451.46Z"/><path class="cls-1" d="M404.68,47.13a87.25,87.25,0,0,0,29.53-5.53,77.82,77.82,0,0,0,9.9,20,22.67,22.67,0,0,0-4.74,5.78,83.72,83.72,0,0,1-13.81-11.25,2,2,0,0,0-2.27-.42,83.21,83.21,0,0,1-17.46,5.59,2,2,0,0,0,.83,3.92,90.4,90.4,0,0,0,17-5.3,88.88,88.88,0,0,0,14,11.15,22.54,22.54,0,0,0-1.17,9,71.33,71.33,0,0,1-13.93-8.49,2,2,0,0,0-2.65.18,70.89,70.89,0,0,1-12.82,9.86A2,2,0,0,0,409.26,85a79.18,79.18,0,0,0,12.28-9.21,74.67,74.67,0,0,0,15.77,9A29.75,29.75,0,0,0,440,91.38a39.59,39.59,0,0,0,19.07,16.84,41.85,41.85,0,0,0,16.6,3.55c7.5,0,14.4-2.23,19.46-6.34a73.33,73.33,0,0,0,17.3,2.07,39.43,39.43,0,0,0,4.9,14.76,2,2,0,0,0,1.74,1,1.87,1.87,0,0,0,1-.27,2,2,0,0,0,.74-2.73,35.47,35.47,0,0,1-4.58-15,2,2,0,0,0-2.1-1.84,63.93,63.93,0,0,1-15.6-1.38,21.82,21.82,0,0,0,3.06-5,21.21,21.21,0,0,0,1.45-4.8,63.3,63.3,0,0,0,16.68-2.89,44.07,44.07,0,0,0,10.23,12.58,2,2,0,1,0,2.56-3.07,40.94,40.94,0,0,1-10-12.85A2,2,0,0,0,520,85a59.59,59.59,0,0,1-16.63,3.19,25.23,25.23,0,0,0-1.13-7.45,67.37,67.37,0,0,0,20.15-7,102.57,102.57,0,0,0,20.22,20,2,2,0,1,0,2.4-3.2,97.82,97.82,0,0,1-20.45-20.6,2,2,0,0,0-2.62-.55A63.06,63.06,0,0,1,500.78,77c-3.56-7.67-10.58-14.58-20-18.67-.45-.2-.9-.38-1.35-.56l15.77-40.08a2,2,0,0,0-3.73-1.46L475.69,56.43a38.37,38.37,0,0,0-20.18-.65,29.16,29.16,0,0,0-8.18,3.42,73.32,73.32,0,0,1-9.93-20.82,2,2,0,0,0-2.69-1.28,82.69,82.69,0,0,1-30.11,6,2,2,0,0,0,.08,4ZM456.5,59.66a31,31,0,0,1,7.69-.94,37.93,37.93,0,0,1,15,3.24c9,3.92,15.56,10.64,18.49,17.88,0,0,0,.07,0,.11a19.91,19.91,0,0,1,.16,15.5c-5.12,11.74-21.83,15.82-37.25,9.1A35.52,35.52,0,0,1,443.5,89.47c-3.42-6.27-4-12.8-1.52-18.4a18.49,18.49,0,0,1,6-7.45l0,0,.05,0A24.08,24.08,0,0,1,456.5,59.66Z"/><path class="cls-1" d="M629.75,456.36l-5-4.36h0l-42.44-36.9a2,2,0,0,0-1.58-.47,2,2,0,0,0-1.4.88c-9.77,14.8-37.68,46.69-63.91,74.43l-.18.16a2.11,2.11,0,0,0-.19.23c-1.53,1.61-3,3.21-4.55,4.78l-.21.22c-4.54,4.75-9,9.33-13.24,13.62l-.08.09c-5,5-9.64,9.62-13.89,13.66a2,2,0,0,0,0,2.86l10.55,10.55a2,2,0,0,0,1.44.59,2,2,0,0,0,1.43-.63l3.81-4.06h0l26.29-28,32.85,32.14a2,2,0,0,0,2.63.15c23.68-18.42,53.61-52.41,68.14-77.39A2,2,0,0,0,629.75,456.36Zm-61.43,37.78c-.22-5.69-.42-11.06,2.83-13.95,4.79-4.25,12.35-4.16,19.68-4.08,7.55.09,14.69.18,18.28-4.75,3.12-4.29,2.5-8.63,2-12.46-.62-4.35-1.06-7.59,3.11-10.77l6.64,5.78C607,477.25,581.52,506.7,558.65,526c.7-6.5,2.92-9.83,5.08-13.06,1.8-2.7,3.66-5.48,4.36-9.72A46.31,46.31,0,0,0,568.32,494.14Zm-58.54,7.45,0,14.45-9,9.62-.29-14.48C503.46,508.11,506.59,504.9,509.78,501.59Zm-14.85,30.22-7.64-7.64c2.9-2.78,6-5.83,9.21-9l.29,14.7Zm18.82-20,0-14.35,2.92-3.06,7,6.83Zm14.11-12.09-8.4-8.23c25-26.49,51.22-56.45,61.9-71.85l29.76,25.88c-5.33,4.52-4.62,9.72-4,14,.5,3.52.93,6.56-1.24,9.54-2.37,3.26-8.49,3.19-15,3.11-7.71-.09-16.44-.18-22.38,5.09-4.67,4.14-4.42,10.72-4.18,17.09a43,43,0,0,1-.18,8.28c-.55,3.39-2,5.59-3.73,8.14-2.37,3.55-5,7.52-5.76,15.17L527.9,499.71ZM560.93,532l-1.5-1.47c23.42-19.34,49.93-49.78,64.46-74l2,1.72C611.75,481.9,583.24,514.27,560.93,532Z"/><path class="cls-1" d="M585.9,443.36a7.62,7.62,0,1,0-7.62-7.62A7.62,7.62,0,0,0,585.9,443.36Zm0-11.23a3.62,3.62,0,1,1-3.62,3.61A3.62,3.62,0,0,1,585.9,432.13Z"/><path class="cls-1" d="M561.4,546.45h0a2,2,0,0,0-1.54.73,27.75,27.75,0,0,0-6,17.09,7.51,7.51,0,0,0,15,0,29.76,29.76,0,0,0-5.91-17A2,2,0,0,0,561.4,546.45Zm0,21.32a3.5,3.5,0,0,1-3.5-3.5A24.44,24.44,0,0,1,561.32,552a25.13,25.13,0,0,1,3.55,12.29A3.51,3.51,0,0,1,561.36,567.77Z"/><path class="cls-1" d="M291.57,423.92l-18.7-14.82,3.21-4.14,4.39,3.58a2,2,0,0,0,2.53-3.1l-12.73-10.36a2,2,0,0,0-2.53,3.1l5.23,4.26-3.23,4.17L233.4,377.8a2.29,2.29,0,0,0-.44-.5,2.23,2.23,0,0,0-.57-.3l-18-14.25a2,2,0,0,0-2.09-.24,2,2,0,0,0-1.15,1.76l-.3,12.86-10.81,1.49a2,2,0,0,0-1.73,2v12.2l-10.28,1.86a2,2,0,0,0-1.64,1.9l-.41,12-10.59,2.09a2,2,0,0,0-1.61,1.89L173.29,426l-11.14.67a2,2,0,0,0-1.79,1.4,2,2,0,0,0,.66,2.16l54.44,43.47-3.62,4.53-4.55-3.54a2,2,0,0,0-2.46,3.15l13,10.09a2,2,0,0,0,1.23.43,2,2,0,0,0,1.23-3.58L215,480.64l3.6-4.49,19.23,15.35a15.72,15.72,0,0,0,22.1-2.52l34.17-43A15.75,15.75,0,0,0,291.57,423.92ZM291,443.54l-34.17,42.95a11.74,11.74,0,0,1-16.48,1.89L167.58,430.3l7.76-.47a2,2,0,0,0,1.88-1.92l.52-13.67,10.6-2.1a2,2,0,0,0,1.61-1.89l.4-11.94,10.34-1.87a2,2,0,0,0,1.64-2V382.34l10.77-1.48a2,2,0,0,0,1.73-1.93l.25-10.55,13.77,10.92-3.74,4.77-5-4a2,2,0,1,0-2.47,3.15l5,3.95-5.3,6.76-4.47-3.5a2,2,0,0,0-2.46,3.15l4.46,3.5-5.65,7.21-4.47-3.5a2,2,0,1,0-2.47,3.14l4.47,3.51-5.42,6.92-5.05-4a2,2,0,1,0-2.47,3.15l5.05,4-4.81,6.14a2,2,0,0,0,.34,2.81,2,2,0,0,0,1.23.42,2,2,0,0,0,1.58-.76L202,420l3.5,2.75a2,2,0,0,0,1.23.42,2,2,0,0,0,1.24-3.57l-3.51-2.75,5.43-6.91,4.08,3.2a2,2,0,0,0,1.23.42,2,2,0,0,0,1.24-3.57l-4.08-3.2,5.65-7.21,4.08,3.2a2,2,0,0,0,1.23.43,2,2,0,0,0,1.24-3.58l-4.08-3.2,5.29-6.76,3.51,2.75a2,2,0,0,0,1.24.43,2,2,0,0,0,1.57-.77,2,2,0,0,0-.34-2.8l-3.51-2.76,3.72-4.74,57.1,45.26A11.75,11.75,0,0,1,291,443.54Z"/><path class="cls-1" d="M223.76,431.77a2,2,0,0,0-1.51.71l-12.74,15.09a2,2,0,0,0,.48,3,14.91,14.91,0,0,0,7.74,2.27,11.27,11.27,0,0,0,8.74-3.86c3.78-4.48,3.28-11.42-1.18-16.52A2,2,0,0,0,223.76,431.77Zm-.34,14.61c-2.07,2.45-5.69,3.09-9.2,1.81L223.66,437C225.5,440.26,225.48,443.94,223.42,446.38Z"/><path class="cls-1" d="M246.86,406.54a1.89,1.89,0,0,0-1.52-.68,2,2,0,0,0-1.51.71l-12.75,15.09a2,2,0,0,0,.49,3,14.87,14.87,0,0,0,7.73,2.27,11.28,11.28,0,0,0,8.75-3.87C251.82,418.58,251.32,411.64,246.86,406.54ZM245,420.47c-2.06,2.45-5.69,3.09-9.2,1.81l9.44-11.17C247.08,414.35,247.05,418,245,420.47Z"/><path class="cls-1" d="M258.45,433.77a2,2,0,0,0-2.31,1.64,39.4,39.4,0,0,1-3.22,9.24c-2.19,5-4.67,10.56-4.37,18.12a2,2,0,0,0,2,1.92h.08a2,2,0,0,0,1.92-2.08c-.26-6.63,1.92-11.57,4-16.34a43.8,43.8,0,0,0,3.51-10.19A2,2,0,0,0,258.45,433.77Z"/><path class="cls-1" d="M73.67,98.78l-4.94,12.11a2,2,0,0,0,1.09,2.61l2.77,1.13a56.93,56.93,0,0,0-7.48,29,61.33,61.33,0,0,0,3.28,19.81l-9.26,5A10.4,10.4,0,0,0,54.25,174a8.38,8.38,0,0,0,6.08,11.3,10,10,0,0,0,2.24.26,10.57,10.57,0,0,0,5-1.3l9-4.81a61.71,61.71,0,0,0,50.32,26c2.16,0,4.29-.12,6.39-.33l4.11,10.14a9,9,0,0,0,8.32,5.62,9,9,0,0,0,8.3-12.3l-3.13-7.79A59.51,59.51,0,0,0,186.23,161l3.3,1.34a1.84,1.84,0,0,0,.76.15,2,2,0,0,0,1.85-1.24l4.94-12.11a2,2,0,0,0-1.1-2.61L192.13,145c8.71-7.11,11-17.26,6.3-28.38a20.45,20.45,0,0,0-13-12c-6.72-2.07-14.62-.9-22,3.23a26.57,26.57,0,0,0-19.6-12.5,24.22,24.22,0,0,0-20.6,7.16,17.74,17.74,0,0,0-16.66-4,12.17,12.17,0,0,0-8.45,8.1L76.28,97.69a2,2,0,0,0-2.61,1.09Zm-8,81.92a6.41,6.41,0,0,1-4.48.67,4.39,4.39,0,0,1-3.24-6A6.44,6.44,0,0,1,61,172l8.78-4.72a61.64,61.64,0,0,0,4.53,8.82Zm84.57,29.35a5,5,0,1,1-9.2,3.69l-3.71-9.17a63,63,0,0,0,9.74-2.41Zm-23.41-8.62a57.83,57.83,0,0,1-57.77-57.77,53.1,53.1,0,0,1,7.22-27.51l106.16,43.32C176.11,184.26,153.49,201.43,126.88,201.43ZM107.8,102.35a13.7,13.7,0,0,1,14,4.38,2,2,0,0,0,1.53.71h0a2,2,0,0,0,1.53-.73,20.33,20.33,0,0,1,18.51-7.39,22.34,22.34,0,0,1,17.5,12.18,2,2,0,0,0,1.26,1.06,2,2,0,0,0,1.62-.24c6.85-4.37,14.31-5.78,20.47-3.87a16.51,16.51,0,0,1,10.48,9.7c2.52,5.93,4.89,16.95-6.91,25.06l-85.92-35.06A8.31,8.31,0,0,1,107.8,102.35Zm-31.18-.21,116,47.34-3.43,8.4-116-47.33Z"/><path class="cls-1" d="M189.25,137.86a2,2,0,0,0,1.77-1.07c3.17-6.06,2.65-14-1.31-20.2a2,2,0,0,0-3.37,2.15c3.2,5,3.65,11.39,1.14,16.19a2,2,0,0,0,.84,2.7A1.94,1.94,0,0,0,189.25,137.86Z"/><path class="cls-1" d="M147.25,189.41a2,2,0,0,0,.75-.14c9.44-3.84,17.77-12.49,22.85-23.73a2,2,0,1,0-3.64-1.65c-4.67,10.31-12.22,18.21-20.72,21.67a2,2,0,0,0,.76,3.85Z"/><path class="cls-1" d="M131,193.77h0a26.07,26.07,0,0,0,8.78-1.83,2,2,0,0,0-1.59-3.67,22,22,0,0,1-7.28,1.5,2,2,0,0,0,.05,4Z"/><path class="cls-1" d="M102.65,90.55A10.72,10.72,0,1,0,91.94,79.83,10.72,10.72,0,0,0,102.65,90.55Zm0-17.43a6.72,6.72,0,1,1-6.71,6.71A6.72,6.72,0,0,1,102.65,73.12Z"/><path class="cls-1" d="M156,55.7a6.93,6.93,0,1,0,6.93,6.93A6.94,6.94,0,0,0,156,55.7Zm0,9.86a2.93,2.93,0,1,1,2.93-2.93A2.93,2.93,0,0,1,156,65.56Z"/><path class="cls-1" d="M237.53,197.63c5-.33,10.65,6.15,12.44,10.93a2,2,0,0,0,1.88,1.3,1.69,1.69,0,0,0,.38,0,2,2,0,0,0,1.62-2c-.14-4.21,3.28-11.38,8.28-12.68a2,2,0,0,0-.61-3.93,9,9,0,0,1-6.77-2.44,12.24,12.24,0,0,1-4-8,2,2,0,0,0-4,.09c0,8.24-3.65,11-10,12.83a2,2,0,0,0-1.4,2.27A2,2,0,0,0,237.53,197.63Zm11.9-9a16.45,16.45,0,0,0,2.64,3.1,13.85,13.85,0,0,0,3.83,2.47,19.56,19.56,0,0,0-5,7.8,23,23,0,0,0-7.3-6.77A13.42,13.42,0,0,0,249.43,188.62Z"/><path class="cls-1" d="M209.58,180.92h-.05a2,2,0,0,0-1.95,2c0,6.32-2.81,8.39-7.66,9.84a2,2,0,0,0,.7,3.92c3.53-.21,8,4.36,9.52,8.45a2,2,0,0,0,1.87,1.3,1.72,1.72,0,0,0,.39,0,2,2,0,0,0,1.61-2c-.1-3.23,2.5-8.72,6.31-9.7a2,2,0,0,0-.62-3.94,6.79,6.79,0,0,1-5.1-1.84,9.31,9.31,0,0,1-3-6.06A2,2,0,0,0,209.58,180.92Zm5,12.73a16.32,16.32,0,0,0-3.39,5.25,18.54,18.54,0,0,0-4.9-4.57,10.91,10.91,0,0,0,3.92-4.41,13,13,0,0,0,1.75,1.94A11.28,11.28,0,0,0,214.54,193.65Z"/><path class="cls-1" d="M512.77,364l-10.2-7.31a2,2,0,0,0-2.33,3.26l11.31,8.1a2,2,0,0,0,1.16.37,2,2,0,0,0,1.09-.32l10.4-6.73a2,2,0,0,0,.91-1.67V347.89A2,2,0,0,0,523.7,346l-10.85-3.37a2,2,0,0,0-2.43,1.11l-3.06,7a2,2,0,0,0,.61,2.37l5,3.9a2,2,0,0,0,2.45-3.16l-3.79-2.94,1.72-4,7.74,2.4v9.21Z"/><path class="cls-1" d="M545.78,330.78l-5.5,10.85a2,2,0,0,0,.2,2.13l7.49,9.63a2,2,0,0,0,1.52.77,2,2,0,0,0,1.56-.67l6.73-7.65a2,2,0,0,0-.17-2.81l-4.28-3.82a2,2,0,1,0-2.66,3l2.8,2.5L549.65,349l-5.23-6.72,4.37-8.63h10.75l5.38,9.6L560.54,354l-9.5,4.18a2,2,0,0,0,.81,3.83,1.89,1.89,0,0,0,.8-.17l10.24-4.51a2,2,0,0,0,1.05-1.07l5-12.3a2,2,0,0,0-.1-1.74l-6.42-11.47a2,2,0,0,0-1.75-1H547.57A2,2,0,0,0,545.78,330.78Z"/><path class="cls-1" d="M6.51,154.4a40.85,40.85,0,0,0,2-12.58,40.61,40.61,0,0,0-2.95-15.19l-.12-.32A40.69,40.69,0,0,0,0,116.93v7.27c.48.88.92,1.78,1.33,2.7-.44.56-.88,1.1-1.33,1.62v5.78q1.52-1.43,2.94-3.06A36.59,36.59,0,0,1,4.5,141.82,36.83,36.83,0,0,1,3,152.06c-1,.11-2,.18-3,.24v4l1.57-.09c-.48,1.1-1,2.18-1.57,3.22v7.27a40.84,40.84,0,0,0,6.42-12.05Z"/><path class="cls-1" d="M630.66,60.72c-2.07-9.65-11.9-19.8-30.95-31.95-8.1-5.16-12.5-11.34-10.49-14.71.8-1.33,5.09-1,8.55-.78l1.16.09a2,2,0,0,0,3.17.16c3.32.08,6.47-.22,8.87-1.81a2,2,0,0,0-2.21-3.34c-1.53,1-4,1.21-6.71,1.14A70.1,70.1,0,0,1,600.83,0h-4a74.55,74.55,0,0,0,1.11,9.29c-5.2-.38-10.09-.7-12.14,2.71-3.33,5.56,1.29,13.46,11.77,20.15,17.84,11.37,27.39,21,29.19,29.41.89,4.15,0,8.09-2.85,12.4a2,2,0,0,0,.51,2.73A24.37,24.37,0,0,0,637,80.87v-4a21.28,21.28,0,0,1-8.7-2.43A18.94,18.94,0,0,0,630.66,60.72Z"/><path class="cls-1" d="M630.61,0A11.19,11.19,0,0,0,637,2V0Z"/><path class="cls-1" d="M596.82,588.8h4c-1.34-22.66,9.27-41.35,29.71-51.28a39.41,39.41,0,0,1,6.46-2.46v-4.14a43.63,43.63,0,0,0-8.21,3C606.85,544.58,595.43,564.59,596.82,588.8Z"/><path class="cls-1" d="M625.75,579.55a11.23,11.23,0,0,0,4.86,9.25H637v-2a7.25,7.25,0,1,1,0-14.49v-4A11.26,11.26,0,0,0,625.75,579.55Z"/><path class="cls-1" d="M586.14,272.15c-7.11-3.8-18.39-.44-26.17,13.34a2,2,0,1,0,3.48,2c.61-1.07,1.25-2.05,1.89-3l37.86,31.29a2,2,0,0,0,2.55-3.09l-37.94-31.36c5.73-6.42,12.17-7.91,16.44-5.63,4.07,2.17,6.29,8.13,2,16.54a2,2,0,0,0,3.47,2c4.48-7.05,10.45-10.79,16.35-10.26a10.67,10.67,0,0,1,9.11,6.67c2.19,5.37.27,12.17-5.28,18.65a2,2,0,0,0,3,2.6c6.55-7.66,8.72-16,6-22.76A14.8,14.8,0,0,0,606.48,280c-4.89-.45-9.71,1.3-14,4.9C592.89,278.72,590,274.21,586.14,272.15Z"/><path class="cls-1" d="M616.9,245.45c-1.65,1.26-3.47,3.82-2.81,8.78,1.31,9.9,11.59,23.68,20.37,27.3a13.36,13.36,0,0,0,2.54.77v-4.11c-.33-.1-.66-.22-1-.36-7.42-3.07-16.81-15.69-17.93-24.12-.33-2.47.11-4.18,1.29-5.09a3.85,3.85,0,0,1,2.43-.79c3.85,0,9.14,4.55,13.06,9.64.77,1,1.5,2,2.17,3.06v-6.74C629.61,244.74,622,241.53,616.9,245.45Z"/><path class="cls-1" d="M631.26,222.23a7.19,7.19,0,0,0-3.72,6.6c-.07,5.69,4.41,13,9.46,17.8V240.8c-3.19-3.92-5.5-8.62-5.46-11.92a3.21,3.21,0,0,1,1.64-3.14,4.67,4.67,0,0,1,3.82-.08v-4.15A8.06,8.06,0,0,0,631.26,222.23Z"/><path class="cls-1" d="M620.91,104.37l-.26-.12a40.73,40.73,0,0,0-33.23.58l-.31.14A41,41,0,0,0,566.6,127.1l-.12.3a40.7,40.7,0,0,0,2,33.37c.06.11.11.23.17.34a41.24,41.24,0,0,0,11.62,13.46l-32.57,60.05a6.15,6.15,0,0,0,5.41,9.09,6.28,6.28,0,0,0,1.6-.21,6.14,6.14,0,0,0,3.75-2.88l34.29-59.74.1,0,.32.09a40.68,40.68,0,0,0,28.68-2.17l.25-.11a41.2,41.2,0,0,0,14.86-12v-7.27a37,37,0,0,1-15.61,15.18c-9.81-7.54-14.29-16.89-13.82-29.07,6.28,7.26,15,10.85,26.47,10.85,1,0,2,0,3-.09v-4c-11.64.61-20.35-2.46-26.38-9.35a38.74,38.74,0,0,0,4.26.25A31.41,31.41,0,0,0,637,134.3v-5.78c-6.74,7.82-14.83,11.3-24.56,10.58,8-5.49,11.34-15.38,9.94-29.55A37.06,37.06,0,0,1,637,124.2v-7.27A41.13,41.13,0,0,0,620.91,104.37ZM588,109c13.52,7.78,19,15.67,17.4,25.58-7.47-11.42-21.81-11.24-33.68-9.24A37.06,37.06,0,0,1,588,109Zm-18.15,20.76c17.06-3.29,27.33-1,32.51,7.52-12.84-2.13-23.32,3.91-31.86,18.37a36.64,36.64,0,0,1-.65-25.89ZM572.66,160c7.71-14.24,16.72-20.37,28.05-18.94-12.13,8.87-11.88,23.31-9.77,34.93A37.08,37.08,0,0,1,572.66,160ZM555,238.63a2.17,2.17,0,0,1-1.32,1,2.16,2.16,0,0,1-2.45-3.12l32.38-59.72a41,41,0,0,0,5.33,2.71Zm62.22-62.2a36.74,36.74,0,0,1-21.93,1c-3.42-16.69-.83-27.26,8.35-33.55C602.78,157.31,607.24,168,617.25,176.43Zm-8.1-40c3-14.31-6.43-23.2-16.54-29.45a36.61,36.61,0,0,1,25.5.52C620.06,122.18,617.13,131.71,609.15,136.48Z"/><path class="cls-1" d="M79,563.46c-2.71-2.26-7.81-3.21-13.86.81C58.53,550.5,45.46,538.66,30.47,533A50.63,50.63,0,0,0,0,530.92v4.14c9.06-2.58,19.14-2,29.07,1.71,14.82,5.58,27.64,17.6,33.44,31.37a2,2,0,0,0,1.37,1.17,2,2,0,0,0,1.75-.41c5.06-4.19,9-3.9,10.82-2.37,2.06,1.72,2.09,5.14.08,8.72a87.12,87.12,0,0,0-6,13.55h4.26A81.06,81.06,0,0,1,80,577.21C83,571.87,82.63,566.48,79,563.46Z"/><path class="cls-1" d="M0,568.31v4a7.25,7.25,0,0,1,7.25,7.24A7.26,7.26,0,0,1,0,586.8v2H6.39a11.23,11.23,0,0,0,4.86-9.25A11.26,11.26,0,0,0,0,568.31Z"/><path class="cls-1" d="M28,556.6A11.25,11.25,0,1,0,39.2,567.85,11.27,11.27,0,0,0,28,556.6Zm0,18.5a7.25,7.25,0,1,1,7.25-7.25A7.26,7.26,0,0,1,28,575.1Z"/><path class="cls-1" d="M184.83,532.61l.46-27.74A2,2,0,0,0,184,503l-15.14-6.12a2,2,0,0,0-1.5,3.71l13.86,5.6-.4,24.42c-1.52-.1-3.49-.16-5.72-.14l-7.53-23.63a2,2,0,0,0-1.38-1.32l-13.45-3.67a2,2,0,0,0-1.05,3.86l12.4,3.38,6.85,21.5a79.89,79.89,0,0,0-10.62,1.19l-8.11-18.41a2,2,0,0,0-1.64-1.19l-19.72-1.83a2,2,0,0,0-.38,4l18.55,1.73,7.33,16.64a24.25,24.25,0,0,0-5.15,2l-18.56-7.58a2,2,0,0,0-2.62,1.12l-6.26,15.9a2,2,0,0,0,1.12,2.59,1.91,1.91,0,0,0,.74.14,2,2,0,0,0,1.86-1.27l5.52-14,14.85,6.06c-.73,1.18-2,4.23,1.62,27.27l-9.62-2.64-6-11.61a2,2,0,0,0-3.55,1.85l6.45,12.38a2,2,0,0,0,1.24,1l12.21,3.35c.74,4.52,1.63,9.7,2.72,15.64l.72,3.88h4.06c-4.72-25.34-7.75-46.23-6.37-49.09a4.53,4.53,0,0,1,1-1,1.79,1.79,0,0,0,.42-.3A21.22,21.22,0,0,1,159.4,536l.37-.08a81,81,0,0,1,21.4-1.32c.81,3.87,2.1,11.19,3.58,19.83a2,2,0,0,0-2.38,1.11l-6.87,15.59a2,2,0,0,0,.18,2,2,2,0,0,0,1.77.86l6.42-.41-4.23,9a2,2,0,0,0,1,2.66,2.16,2.16,0,0,0,.85.18,2,2,0,0,0,1.81-1.15L188.07,574c.84,5,1.69,10,2.53,14.79h4.05c-1.23-7.1-2.52-14.72-3.75-22C188.26,551.14,186,537.62,184.83,532.61ZM187,569.34l-6.5.41,5-11.24c.5,2.9,1,5.9,1.52,9,.1.63.21,1.26.32,1.9A1.51,1.51,0,0,0,187,569.34Z"/><path class="cls-1" d="M322.38,20.27a50.68,50.68,0,0,0,15.87,2.47c15.21,0,32-6.2,48.75-18.18,1.8-1.29,4-2.85,6.46-4.56h-7l-1.83,1.3c-21.75,15.59-43.42,21-61,15.17-9.32-3.07-13.3-8.94-15-13.33A21.59,21.59,0,0,1,307.71,0h-4.08a25.94,25.94,0,0,0,1.28,4.58C306.91,9.77,311.57,16.71,322.38,20.27Z"/><path class="cls-1" d="M441,536.9c-7.27-1.8-31.13-3.23-42.52-.93a79.13,79.13,0,0,1-8.34-16.56c-3.21-9.78-3.47-19.75-3.68-27.76-.08-3-.15-5.6-.36-7.87-.85-9.23-9.53-20.75-22.59-24.08a2,2,0,0,0-2.2.9l-1.68,2.75a2,2,0,0,0-.14,1.8,2,2,0,0,0,1.36,1.19c2,.49,6.71,5.66,7.49,10.49.7,4.3-3,11.41-6.92,18.93a150.46,150.46,0,0,0-6.94,14.55c-1.71,4.38-2.36,10.26-3.25,18.41-.6,5.51-1.33,12.08-2.58,19.75-20.85,3.22-37.45,14.39-42.63,23.52a25.35,25.35,0,0,0-2.43,16.81h4.08A21.87,21.87,0,0,1,309.53,574c4-7,18.35-17.86,38.45-21.32-1.11,6.18-2.58,13-4.59,20.54a2,2,0,0,0,1.05,2.31,40.2,40.2,0,0,0,17.87,3.85c20.47,0,42.64-12.19,51.14-21.41a2,2,0,0,0,0-2.74A124.87,124.87,0,0,1,400.9,539.6c11.22-1.76,32.69-.42,39.18,1.18,1.91.47,5.17,1.6,5.52,3.82s-2.08,6-8.22,9.81c-6.35,3.88-36.91,24.5-50.88,34.39h7c15.14-10.55,40.33-27.51,46-31,7.1-4.34,10.78-9.38,10.09-13.83C449.19,541.62,447.41,538.47,441,536.9Zm-91.63,28.68c1,.27,2.14.51,3.29.69l-.39,7.85a33.38,33.38,0,0,1-4.62-1.54Q348.62,569,349.41,565.58Zm6.87,9.31.4-8.18c.92,0,1.85.09,2.82.09a52.24,52.24,0,0,0,8-.65l-.36,8.9A47.08,47.08,0,0,1,356.28,574.89Zm14.92-.36.36-9.13c9.59-2.14,20.53-6.94,32-15.49,1.85,2.31,3.74,4.55,5.67,6.63C401.65,563.84,386.44,572,371.2,574.53Zm29.91-27.79c-11.51,8.6-22.37,13.19-31.71,15.06l-.34.07a42.27,42.27,0,0,1-18.79-.2,301.35,301.35,0,0,0,5-32.51c.86-7.84,1.48-13.51,3-17.39A147.66,147.66,0,0,1,365,497.61c4.42-8.48,8.24-15.81,7.33-21.42-.66-4.11-3.71-9-6.93-11.72,9.75,3.68,16.1,12.51,16.76,19.68.2,2.13.26,4.67.34,7.6.22,8.28.48,18.57,3.88,28.91,1.74,5.3,5.15,11.85,9.42,18.46l.24.36C397.62,541.92,399.33,544.36,401.11,546.74Z"/><path class="cls-1" d="M93.1,439.34l0,0c-10.38-12.18-25.71-26.41-39.68-35-2.28-1.4-4.47-2.61-6.58-3.67l-.07,0c-10.59-5.27-19-6.18-25-2.67-3.1,1.8-4.74,6-4.85,12.36-.45,24.9,20.47,77.06,34.45,85.86a5.24,5.24,0,0,0,3.11.81c2.5,0,6.84-1,14.55-5,14.59-7.53,36-23.36,36.46-32.28.2-3.63-4.55-11.22-11.89-19.92A2.27,2.27,0,0,0,93.1,439.34ZM23.68,401.42A12.39,12.39,0,0,1,30,399.87c4,0,8.38,1.36,12.65,3.27-4,4.21-12.67,11.51-21.4,14.71a54.71,54.71,0,0,1-.45-7.46C20.9,405.62,21.92,402.44,23.68,401.42ZM46.41,405c1.69.89,3.33,1.83,4.87,2.78,13.77,8.44,28,21.89,37.82,33.1-11.73,12.82-31.67,26.85-48.73,34.3-8-15.32-15.78-37-18.51-53.27C32.22,418.33,42.38,409.52,46.41,405Zm20.68,83.5c-8.94,4.62-12.86,4.85-13.69,4.33-3.34-2.1-7.22-7.26-11.11-14.13,17.28-7.61,37.37-21.74,49.41-34.75,6.06,7.31,9.82,13.28,9.69,15.61C101.07,465.25,83.76,479.85,67.09,488.46Z"/><path class="cls-1" d="M38.7,451.12c-1.78-5-5.71-18.05-7.13-27a2,2,0,0,0-3.95.63c1.55,9.79,5.67,23.16,7.31,27.76a2,2,0,0,0,1.89,1.33,2,2,0,0,0,.67-.12A2,2,0,0,0,38.7,451.12Z"/><path class="cls-1" d="M41.8,466.35a2,2,0,0,0,1.09-.32,2,2,0,0,0,.59-2.77,29.72,29.72,0,0,1-2.09-5.66,2,2,0,0,0-3.87,1,31.67,31.67,0,0,0,2.6,6.83A2,2,0,0,0,41.8,466.35Z"/><path class="cls-1" d="M125.36,375.53a2,2,0,0,0,1.13-1.48c4.62-27.26,15.87-35,26.26-39.05a1.94,1.94,0,0,0,1.14-1.14,2,2,0,0,0-.06-1.61,15.63,15.63,0,0,1,.84-14.64,16.72,16.72,0,0,1,13.1-8.62,2,2,0,0,0,1.77-2.56,14.54,14.54,0,0,1,1.58-12.22c4.49-7.28,15.35-12.79,30.56-15.51a2,2,0,0,0,1.63-1.71,2,2,0,0,0-1.13-2.07c-37.89-17.77-73.08-10.4-89.75,4a2,2,0,0,0-.35,2.63c12.81,19.1,15.15,35.44,7.39,52.56a20.31,20.31,0,0,1-3.73-11.94,2,2,0,0,0-3.78-.93c-2.8,5.41-9.92,8.14-18.12,7a2,2,0,0,0-1.2,3.76c3.65,1.91,5.34,5.66,5.11,11.45-11.1-5.38-30.8-28.13-32-42.8a2,2,0,0,0-2.27-1.82C39.76,302,10.5,322.5,0,355.48v2.67a1.9,1.9,0,0,0,.36.39,2,2,0,0,0,2.24.18c11.55-6.56,22.9-9,31.12-6.67A14.63,14.63,0,0,1,43,359.1a2,2,0,0,0,3.41.15c1.95-2.88,7.56-4.55,13.08-3.87,3.29.4,11.29,2.3,14.57,11.23a2,2,0,0,0,1.23,1.21,2,2,0,0,0,1.71-.21c10.79-6.82,26-4.25,46.53,7.83a2,2,0,0,0,1.86.09Zm-2.31-5c-12.63-7.12-23.44-10.67-32.61-10.67a29,29,0,0,0-13.58,3.17c-3.19-6.52-9.24-10.72-16.91-11.66-5.81-.71-11.52.69-15,3.5a19.15,19.15,0,0,0-10.2-6.71c-8.13-2.29-18.75-.58-29.69,4.69C15.72,324.61,40.87,306.78,62,303c3.06,17.35,25.84,42,36.95,45.09a2,2,0,0,0,1.65-.26,2,2,0,0,0,.87-1.43c.72-6-.08-10.69-2.41-14.05a21,21,0,0,0,13.16-5.11,23.6,23.6,0,0,0,6.26,11.85,2,2,0,0,0,1.72.57,2,2,0,0,0,1.47-1.07c9.8-19.11,8.18-37-5.31-57.83,15.79-12.42,46.63-17.5,78.4-4.74-13.28,3.27-22.58,8.76-27.08,16.05a18.48,18.48,0,0,0-2.55,13.2,21,21,0,0,0-14,10.31A19.89,19.89,0,0,0,149.42,332C135.06,338.27,127,350,123.05,370.57Z"/><path class="cls-1" d="M31.63,322.91c-3.91,2.79-13,11.45-17.34,19.73a2,2,0,0,0,.84,2.7,2.06,2.06,0,0,0,.93.23,2,2,0,0,0,1.77-1.08c4-7.58,12.6-15.81,16.13-18.33a2,2,0,1,0-2.33-3.25Z"/><path class="cls-1" d="M45.14,313.49c-1.34.73-4.48,2.6-5.94,3.5a2,2,0,1,0,2.1,3.4c1.55-1,4.58-2.74,5.75-3.39a2,2,0,1,0-1.91-3.51Z"/><path class="cls-1" d="M28.52,290.54a2,2,0,0,0,2.72.78A2,2,0,0,0,32,288.6l-.77-1.38a2,2,0,0,0-3.5,1.94Z"/><path class="cls-1" d="M54.83,284.49a2,2,0,1,0-1,3.88l1.22.31a2.05,2.05,0,0,0,.49.06,2,2,0,0,0,.48-3.94Z"/><path class="cls-1" d="M87.91,276l-.69,1.23a2,2,0,0,0,.77,2.72,1.92,1.92,0,0,0,1,.26,2,2,0,0,0,1.74-1l.69-1.22a2,2,0,0,0-3.49-2Z"/><path class="cls-1" d="M65.9,260.81l1.22,1.26a2,2,0,0,0,1.44.61,2,2,0,0,0,1.44-3.4L68.77,258a2,2,0,0,0-2.87,2.79Z"/><path class="cls-1" d="M66.65,245.79a2.06,2.06,0,0,0,.76.15,2,2,0,0,0,1.85-1.24l.54-1.3a2,2,0,1,0-3.7-1.52l-.54,1.29A2,2,0,0,0,66.65,245.79Z"/><path class="cls-1" d="M95.34,246.43a2,2,0,0,0,.18,2.83l1.3,1.14a2,2,0,0,0,1.32.5,2,2,0,0,0,1.32-3.49l-1.3-1.15A2,2,0,0,0,95.34,246.43Z"/><path class="cls-1" d="M80.56,220,79,221a2,2,0,0,0,1,3.74,2,2,0,0,0,1-.27l1.61-.91a2,2,0,0,0-2-3.48Z"/><path class="cls-1" d="M243.22,558.79a2,2,0,0,0-2.81.35l-1.07,1.38a2,2,0,0,0,.35,2.8,2,2,0,0,0,1.23.42,2,2,0,0,0,1.58-.77l1.07-1.37A2,2,0,0,0,243.22,558.79Z"/><path class="cls-1" d="M588.57,543.14l-1.69,1.53a2,2,0,0,0,1.35,3.48,2,2,0,0,0,1.34-.52l1.69-1.53a2,2,0,0,0-2.69-3Z"/><path class="cls-1" d="M67.18,521.23l-1.68,1.53a2,2,0,0,0-.14,2.82,2,2,0,0,0,1.48.66,2.06,2.06,0,0,0,1.35-.52l1.68-1.53a2,2,0,0,0-2.69-3Z"/><path class="cls-1" d="M227.89,48.25,226.4,49.4a2,2,0,0,0-.37,2.8,2,2,0,0,0,2.81.37l1.49-1.15a2,2,0,0,0-2.44-3.17Z"/><path class="cls-1" d="M258.46,8.35a2,2,0,0,0,1.61.8A2,2,0,0,0,261.66,6l-.91-1.23a2,2,0,0,0-3.2,2.4Z"/><path class="cls-1" d="M272.1,29.71a2,2,0,0,0,1.13-.35l1.84-1.27a2,2,0,0,0-2.27-3.29L271,26.06a2,2,0,0,0,1.13,3.65Z"/><path class="cls-1" d="M249.23,32.13l1,.34a2,2,0,0,0,.63.1,2,2,0,0,0,.63-3.89l-1-.35a2,2,0,0,0-1.26,3.8Z"/><path class="cls-1" d="M289,36a2,2,0,0,0,.94-.23l1.72-.92a2,2,0,1,0-1.89-3.53l-1.72.92A2,2,0,0,0,289,36Z"/><path class="cls-1" d="M451.46,72.13l9.47,3.68a1.89,1.89,0,0,0,.73.14,2,2,0,0,0,.72-3.87l-9.48-3.67a2,2,0,1,0-1.44,3.72Z"/><path class="cls-1" d="M476.83,81.77l8.56,3.35a2,2,0,1,0,1.45-3.73l-8.56-3.34a2,2,0,1,0-1.45,3.72Z"/><path class="cls-1" d="M511.76,33.78a2,2,0,0,0,1.41.59,2,2,0,0,0,1.42-.59,2,2,0,0,0,0-2.82l-2.3-2.3a2,2,0,0,0-2.83,2.83Z"/><path class="cls-1" d="M553.07,30.24a1.93,1.93,0,0,0,.81-.17l2.75-1.22A2,2,0,1,0,555,25.19l-2.75,1.22a2,2,0,0,0,.81,3.83Z"/><path class="cls-1" d="M535.19,49.88a2,2,0,0,0,2,1.76h.24a2,2,0,0,0,1.75-2.23l-.61-5a2,2,0,0,0-2.23-1.75,2,2,0,0,0-1.74,2.23Z"/><path class="cls-1" d="M469.94,16.48a1.81,1.81,0,0,0,.4,0l1.5-.3a2,2,0,1,0-.8-3.92l-1.5.3a2,2,0,0,0,.4,4Z"/><path class="cls-1" d="M598.66,270c3.36,3.14,7.12,4.82,10.23,4.82a6.15,6.15,0,0,0,4.62-1.83h0c3.1-3.32,1.39-9.61-4-14.62a18.38,18.38,0,0,0-7.69-4.46c-3-.77-5.56-.25-7.17,1.47s-2,4.3-1,7.25A18.36,18.36,0,0,0,598.66,270Zm-1.06-11.89a2.26,2.26,0,0,1,1.68-.54,6.67,6.67,0,0,1,1.57.21,14.63,14.63,0,0,1,5.95,3.51c4,3.7,4.89,7.78,3.79,9s-5.24.53-9.2-3.17a14.5,14.5,0,0,1-3.9-5.7C597,259.87,597.05,258.65,597.6,258.06Z"/><path class="cls-1" d="M339.32,407.14a2,2,0,0,0-1.74-.13,27.77,27.77,0,0,0-13.52,12,7.51,7.51,0,0,0,6.54,11.17,7.7,7.7,0,0,0,2.06-.29,7.47,7.47,0,0,0,4.5-3.57,29.81,29.81,0,0,0,3.14-17.75A2,2,0,0,0,339.32,407.14Zm-5.65,17.26a3.54,3.54,0,0,1-2.11,1.66,3.5,3.5,0,0,1-4-5.08,24.4,24.4,0,0,1,9-9A25.15,25.15,0,0,1,333.67,424.4Z"/><path class="cls-1" d="M384.42,366.86l-22.81-8a2,2,0,0,0-1.33,3.78l22.81,8a2.24,2.24,0,0,0,.67.11,2,2,0,0,0,.66-3.89Z"/><path class="cls-1" d="M365.52,371.43l-6.59-2.18a2,2,0,0,0-1.25,3.8l6.59,2.18a2,2,0,0,0,2.52-1.27A2,2,0,0,0,365.52,371.43Z"/><path class="cls-1" d="M381.44,376.8l-10.77-3.1a2,2,0,0,0-1.11,3.85l10.78,3.09a1.75,1.75,0,0,0,.55.08,2,2,0,0,0,.55-3.92Z"/><path class="cls-1" d="M365.37,390.58c-6.51-2.11-14.17-2.36-15.6,2.06-.38,1.18-.5,3.6,3,6.46a26.58,26.58,0,0,0,8.43,4.34,28.58,28.58,0,0,0,8.43,1.46c3.51,0,6.36-1,7.17-3.52h0C378.24,397,371.88,392.68,365.37,390.58Zm-2.93,9.05c-6-1.94-8.92-4.93-8.87-5.75.23-.38,1.46-.75,3.42-.75a23.71,23.71,0,0,1,7.15,1.25c5.95,1.93,8.89,4.89,8.87,5.77C372.51,400.87,368.39,401.55,362.44,399.63Z"/><path class="cls-1" d="M370.44,332a3.42,3.42,0,0,0-4.08,2.27l-2.09,7.27a13.55,13.55,0,0,0,1.91,11.31,17.77,17.77,0,0,0,10,7.18,18.9,18.9,0,0,0,5.18.74,17,17,0,0,0,7.1-1.52,13.58,13.58,0,0,0,7.63-8.57l2.08-7.27a3.25,3.25,0,0,0-.42-2.67,3.67,3.67,0,0,0-1.81-1.41A62.33,62.33,0,0,0,370.44,332Zm21.8,17.57a9.61,9.61,0,0,1-5.44,6,14.31,14.31,0,0,1-17.28-5,9.66,9.66,0,0,1-1.41-8L370,336A58.36,58.36,0,0,1,394.15,343Z"/><path class="cls-1" d="M390.52,326.65l-7.23-2.34a21.9,21.9,0,0,0-27.57,14.1l-16.19,50.08a16.16,16.16,0,0,0,10.41,20.35l18.13,5.87a16.19,16.19,0,0,0,20.36-10.41l16.19-50.08A21.92,21.92,0,0,0,390.52,326.65Zm-5.9,76.42a12.17,12.17,0,0,1-15.31,7.83L351.17,405a12.16,12.16,0,0,1-7.83-15.32l.25-.78c18.75-6.55,37.3.6,42.75,8.83ZM400.81,353l-13,40.24c-7.47-8-24.6-14.13-42.7-9l14.43-44.62a17.85,17.85,0,0,1,22.53-11.52l7.23,2.34A17.9,17.9,0,0,1,400.81,353Z"/><path class="cls-1" d="M221.2,321.6a2,2,0,0,1-1.94-1.55l-.92-4a2,2,0,0,1,3.9-.89l.92,4a2,2,0,0,1-1.51,2.39A1.73,1.73,0,0,1,221.2,321.6Z"/><path class="cls-1" d="M208.52,301.94A2,2,0,0,1,207,298.7l1.68-2.14a2,2,0,1,1,3.14,2.47l-1.68,2.14A2,2,0,0,1,208.52,301.94Z"/><path class="cls-1" d="M204.39,334.82a2,2,0,0,1-1.27-.46L201.44,333a2,2,0,1,1,2.54-3.08l1.69,1.38a2,2,0,0,1,.26,2.82A2,2,0,0,1,204.39,334.82Z"/><path class="cls-1" d="M170.3,337.1a2.06,2.06,0,0,1-1-.29,2,2,0,0,1-.68-2.74l.91-1.53a2,2,0,1,1,3.43,2.06l-.91,1.52A2,2,0,0,1,170.3,337.1Z"/><path class="cls-1" d="M204.69,232.76a2,2,0,0,1-1.07-.31l-2.52-1.6a2,2,0,0,1,2.15-3.38l2.52,1.61a2,2,0,0,1-1.08,3.68Z"/><path class="cls-1" d="M374.91,295.82h0a2,2,0,0,1-2-2v-3a2,2,0,0,1,2-2h0a2,2,0,0,1,2,2v3.05A2,2,0,0,1,374.91,295.82Z"/><path class="cls-1" d="M366.36,186.37a2,2,0,0,1-2-2v-3.45a2,2,0,1,1,4,0v3.45A2,2,0,0,1,366.36,186.37Z"/><path class="cls-1" d="M376.06,164.2a2,2,0,0,1-.68-3.88l1.68-.61a2,2,0,0,1,1.37,3.76l-1.69.61A1.78,1.78,0,0,1,376.06,164.2Z"/><path class="cls-1" d="M372.54,67.44a2,2,0,0,1-1.6-3.2l.92-1.22a2,2,0,0,1,3.2,2.4l-.92,1.22A2,2,0,0,1,372.54,67.44Z"/><path class="cls-1" d="M375.29,38.7a2,2,0,0,1-1.19-.4L371,36a2,2,0,0,1,2.4-3.2l3.06,2.29a2,2,0,0,1,.4,2.8A2,2,0,0,1,375.29,38.7Z"/><path class="cls-1" d="M516.23,171.54a2,2,0,0,1-.4-4l2.76-.56a2,2,0,0,1,.8,3.92l-2.75.56A1.9,1.9,0,0,1,516.23,171.54Z"/><path class="cls-1" d="M458,150.6a2,2,0,0,1-1.71-.95l-1.22-2a2,2,0,0,1,3.41-2.1l1.22,2a2,2,0,0,1-.65,2.75A2,2,0,0,1,458,150.6Z"/><path class="cls-1" d="M474.23,133.63a2,2,0,0,1-1.52-.69,2,2,0,0,1,.21-2.83l.89-.76a2,2,0,1,1,2.61,3l-.89.77A2,2,0,0,1,474.23,133.63Z"/><path class="cls-1" d="M420.87,392.92a2,2,0,0,1-1.59-.78,2,2,0,0,1,.37-2.8l2.35-1.81a2,2,0,0,1,2.44,3.17l-2.35,1.81A2,2,0,0,1,420.87,392.92Z"/><path class="cls-1" d="M438.58,368.28a2,2,0,0,1-1.72-1l-.92-1.54a2,2,0,0,1,3.44-2.05l.92,1.55a2,2,0,0,1-1.72,3Z"/><path class="cls-1" d="M479.1,396.26a1.87,1.87,0,0,1-.56-.09,2,2,0,0,1-1.36-2.48l1-3.33a2,2,0,0,1,3.83,1.13l-1,3.33A2,2,0,0,1,479.1,396.26Z"/><path class="cls-1" d="M477.1,357.45a2,2,0,0,1-1.46-.63l-2.52-2.7a2,2,0,1,1,2.92-2.73l2.53,2.7a2,2,0,0,1-.1,2.82A2,2,0,0,1,477.1,357.45Z"/><path class="cls-1" d="M341.59,453.58a2,2,0,0,1-1-3.72l1.16-.69a2,2,0,0,1,2,3.44l-1.16.69A2,2,0,0,1,341.59,453.58Z"/><path class="cls-1" d="M285.41,512.05a2,2,0,0,1-2-1.57l-.46-2.06a2,2,0,0,1,3.9-.87l.46,2.07a2,2,0,0,1-1.52,2.38A1.58,1.58,0,0,1,285.41,512.05Z"/><path class="cls-1" d="M217.31,509.3a2,2,0,0,1-1.32-.5l-1.83-1.6a2,2,0,0,1,2.63-3l1.84,1.6a2,2,0,0,1-1.32,3.51Z"/><path class="cls-1" d="M114.58,485.22a1.86,1.86,0,0,1-.52-.07,2,2,0,0,1-1.41-2.45l.69-2.53a2,2,0,0,1,3.86,1.06l-.69,2.52A2,2,0,0,1,114.58,485.22Z"/><path class="cls-1" d="M107.7,424.92a1.79,1.79,0,0,1-.55-.08,2,2,0,0,1-1.37-2.47l.46-1.61a2,2,0,1,1,3.84,1.1l-.45,1.61A2,2,0,0,1,107.7,424.92Z"/><path class="cls-1" d="M90.05,400.15a2,2,0,0,1-1.33-.5l-2.07-1.84a2,2,0,0,1,2.66-3l2.07,1.84a2,2,0,0,1,.16,2.82A2,2,0,0,1,90.05,400.15Z"/><path class="cls-1" d="M479.1,513.76a2,2,0,0,1-1.32-.5,2,2,0,0,1-.18-2.82l1.9-2.17a2,2,0,0,1,3,2.64l-1.9,2.17A2,2,0,0,1,479.1,513.76Z"/><path class="cls-1" d="M488.57,483.62h-.17a2,2,0,0,1-1.82-2.16l.23-2.75a2,2,0,0,1,2.15-1.83,2,2,0,0,1,1.83,2.16l-.23,2.75A2,2,0,0,1,488.57,483.62Z"/><path class="cls-1" d="M528.47,551.91a2,2,0,0,1-1-3.76l3.21-1.75a2,2,0,0,1,1.92,3.51l-3.21,1.75A2,2,0,0,1,528.47,551.91Z"/><path class="cls-1" d="M464.26,564.22a2,2,0,0,1-1.36-.54l-2.52-2.36a2,2,0,1,1,2.73-2.92l2.52,2.36a2,2,0,0,1,.1,2.82A2,2,0,0,1,464.26,564.22Z"/><path class="cls-1" d="M423.68,500.59a2,2,0,0,1-1.22-3.59l1.18-.91a2,2,0,1,1,2.45,3.16l-1.19.92A2,2,0,0,1,423.68,500.59Z"/><path class="cls-1" d="M551.4,386.4a2,2,0,0,1-.79-.17,2,2,0,0,1-1.05-2.62l1.38-3.21a2,2,0,1,1,3.67,1.57l-1.38,3.21A2,2,0,0,1,551.4,386.4Z"/><path class="cls-1" d="M535.35,306.83a2,2,0,0,1-1.69-.93l-1.61-2.52a2,2,0,0,1,3.38-2.15l1.6,2.53a2,2,0,0,1-1.68,3.07Z"/><path class="cls-1" d="M350.23,184.69h-2.76a2,2,0,0,1,0-4h2.76a2,2,0,0,1,0,4Z"/><path class="cls-1" d="M366.36,214.19a2,2,0,0,1-2-2v-2.33a2,2,0,0,1,4,0v2.33A2,2,0,0,1,366.36,214.19Z"/><path class="cls-1" d="M122.15,57.7a2,2,0,0,1-1.46-3.37l1.84-1.94a2,2,0,1,1,2.91,2.74l-1.84,1.94A2,2,0,0,1,122.15,57.7Z"/><path class="cls-1" d="M128.7,77.53a2,2,0,0,1-1.28-.46l-2.9-2.41a2,2,0,0,1,2.56-3.08L130,74a2,2,0,0,1-1.28,3.54Z"/><path class="cls-1" d="M113.67,397.86a2,2,0,0,1-1.15-3.63l2.29-1.61a2,2,0,1,1,2.3,3.27l-2.3,1.61A2,2,0,0,1,113.67,397.86Z"/><path class="cls-1" d="M232.9,164.71a2,2,0,0,1-1-3.7l3.44-2.12a2,2,0,0,1,2.09,3.41L234,164.42A2,2,0,0,1,232.9,164.71Z"/><path class="cls-1" d="M559.2,115.67a2.58,2.58,0,0,1-.39,0,2,2,0,0,1-1.58-2.34l.46-2.37a2,2,0,0,1,3.93.76l-.46,2.37A2,2,0,0,1,559.2,115.67Z"/><path class="cls-1" d="M301,402.88a2,2,0,0,1-2-1.78l-.3-2.81a2,2,0,0,1,4-.43l.3,2.81a2,2,0,0,1-1.77,2.2Z"/><path class="cls-1" d="M293.51,368.43A2,2,0,0,1,292.1,365l.76-.77a2,2,0,0,1,2.83,2.84l-.77.76A2,2,0,0,1,293.51,368.43Z"/><path class="cls-1" d="M157.76,402.25a2,2,0,0,1-1.42-.59,2,2,0,0,1,0-2.82l.76-.77a2,2,0,0,1,2.83,2.83l-.77.77A2,2,0,0,1,157.76,402.25Z"/><path class="cls-1" d="M258.2,361.55a2,2,0,0,1-1.65-.87,2,2,0,0,1,.52-2.78l1.23-.83a2,2,0,0,1,2.25,3.3l-1.22.84A2,2,0,0,1,258.2,361.55Z"/><path class="cls-1" d="M329.44,336.7a2,2,0,0,1-1.74-1l-1.07-1.89a2,2,0,0,1,3.48-2l1.07,1.89a2,2,0,0,1-.76,2.72A2,2,0,0,1,329.44,336.7Z"/><path class="cls-1" d="M314.3,206.4a2,2,0,0,1-2-1.8l-.23-2.23a2,2,0,0,1,1.79-2.2,2,2,0,0,1,2.19,1.79l.23,2.23a2,2,0,0,1-1.78,2.19Z"/><path class="cls-1" d="M286.32,209.76a2,2,0,0,1-.74-3.86l1.54-.61a2,2,0,0,1,2.59,1.12,2,2,0,0,1-1.11,2.6l-1.54.61A2.11,2.11,0,0,1,286.32,209.76Z"/><path class="cls-1" d="M604.1,364a2,2,0,0,1-.83-3.82l2.57-1.16a2,2,0,0,1,1.64,3.65l-2.56,1.16A2,2,0,0,1,604.1,364Z"/><path class="cls-1" d="M404.4,124.35a2,2,0,0,1-.82-3.83l2.56-1.15a2,2,0,1,1,1.65,3.64l-2.56,1.16A2,2,0,0,1,404.4,124.35Z"/><path class="cls-1" d="M36.1,136.21a2,2,0,0,1-.83-3.83l2.56-1.15a2,2,0,1,1,1.65,3.64L36.92,136A2,2,0,0,1,36.1,136.21Z"/><path class="cls-1" d="M13.63,97.15A2,2,0,0,1,12,96.3l-1.54-2.19a2,2,0,1,1,3.27-2.3L15.27,94a2,2,0,0,1-.49,2.78A2,2,0,0,1,13.63,97.15Z"/><path class="cls-1" d="M112.75,575.57a2,2,0,0,1-.41-4l2.18-.46a2,2,0,0,1,.82,3.92l-2.18.45A2,2,0,0,1,112.75,575.57Z"/><path class="cls-1" d="M525.1,225a2,2,0,0,1-1.46-.63l-2-2.14a2,2,0,0,1,2.93-2.73l2,2.14A2,2,0,0,1,525.1,225Z"/><path class="cls-1" d="M325.67,496.93a2,2,0,0,1-1.57-.77L323,494.81a2,2,0,1,1,3.14-2.48l1.07,1.36a2,2,0,0,1-.33,2.81A2.05,2.05,0,0,1,325.67,496.93Z"/><path class="cls-1" d="M323.68,535.31a2,2,0,0,1-.2-4l1.45-.15a2,2,0,1,1,.42,4l-1.46.15Z"/><path class="cls-1" d="M285.18,560.37a2,2,0,0,1-1.84-1.21l-1.24-2.89a2,2,0,1,1,3.68-1.58l1.24,2.89a2,2,0,0,1-1.84,2.79Z"/><path class="cls-1" d="M611.75,415.38a2,2,0,0,1-1.84-1.21l-1.24-2.89a2,2,0,1,1,3.67-1.58l1.24,2.89a2,2,0,0,1-1.05,2.63A2,2,0,0,1,611.75,415.38Z"/></g></g></svg>